<svg xmlns="http://www.w3.org/2000/svg" width="1110.56" height="892.88" viewBox="0 0 1110.56 892.88">
  <g id="Group_158" data-name="Group 158" transform="translate(-441.312 -96)">
    <g id="Group_157" data-name="Group 157" transform="translate(0 -60)">
      <path id="Path_115" data-name="Path 115" d="M-117.117,45.326V174h-31.3V120.31H-197.2V174h-31.122V45.326H-197.2V95.194h48.776V45.326Zm60.06,25.844q11.648,0,20.02,5.278A31.73,31.73,0,0,1-24.661,90.826V72.444H6.279V174h-30.94V155.618A31.73,31.73,0,0,1-37.037,170q-8.372,5.278-20.02,5.278a41.131,41.131,0,0,1-22.477-6.279,42.958,42.958,0,0,1-15.652-18.109q-5.733-11.83-5.733-27.664,0-16.016,5.733-27.755A43.061,43.061,0,0,1-79.534,77.449,41.131,41.131,0,0,1-57.057,71.17Zm10.01,27.3q-10.01,0-16.107,6.552t-6.1,18.2q0,11.648,6.1,18.2t16.107,6.552A21.04,21.04,0,0,0-30.94,141.24q6.279-6.734,6.279-18.018,0-11.466-6.279-18.109A21.181,21.181,0,0,0-47.047,98.47ZM73.619,71.17q19.656,0,32.942,10.829t16.744,29.757H90.363a17.379,17.379,0,0,0-6.006-10.192,17.775,17.775,0,0,0-11.466-3.64,16.632,16.632,0,0,0-13.468,6.461q-5.278,6.461-5.278,18.837t5.278,18.837a16.632,16.632,0,0,0,13.468,6.461,17.775,17.775,0,0,0,11.466-3.64,17.379,17.379,0,0,0,6.006-10.192h32.942q-3.458,18.928-16.744,29.757T73.619,175.274q-14.924,0-26.481-6.279a44.865,44.865,0,0,1-18.109-18.109q-6.552-11.83-6.552-27.664,0-16.016,6.461-27.755A44.279,44.279,0,0,1,47.047,77.449,55.109,55.109,0,0,1,73.619,71.17ZM201.019,174l-30.394-43.134V174H139.5V39.32h31.122v73.892l30.394-40.768H237.6l-40.95,50.778L238.511,174Z" transform="translate(960 686)" fill="#35adf8"/>
      <g id="Group_155" data-name="Group 155" transform="translate(359 -240)">
        <g id="Subtraction_14" data-name="Subtraction 14" transform="translate(16278 10849.151)" fill="none">
          <path d="M-15819.119-10191.6h0l-98.616-125.721,99.359-126.676v31.772l-74.355,94.8,74.355,94.8v30.072l-.742.949Z" stroke="none"/>
          <path d="M -15819.119140625 -10191.6015625 L -15917.7353515625 -10317.322265625 L -15818.3759765625 -10443.998046875 L -15818.3759765625 -10412.2255859375 L -15892.7314453125 -10317.42578125 L -15818.3759765625 -10222.6240234375 L -15818.3759765625 -10192.5517578125 L -15819.1181640625 -10191.6025390625 L -15819.119140625 -10191.6015625 Z" stroke="none" fill="#79e05a"/>
        </g>
        <g id="Subtraction_13" data-name="Subtraction 13" transform="translate(16510.869 10848.672)" fill="#962727">
          <path d="M-15768-10191.12v0h0l-.745-.947v-29.973l74.358-94.8-74.358-94.8v-31.878l99.358,126.677-98.612,125.727Z" stroke="none"/>
          <path d="M -15768 -10191.1201171875 L -15768 -10191.1220703125 L -15768 -10191.123046875 L -15768.7451171875 -10192.0703125 L -15768.7451171875 -10222.04296875 L -15694.38671875 -10316.84375 L -15768.7451171875 -10411.646484375 L -15768.7451171875 -10443.5244140625 L -15669.38671875 -10316.84765625 L -15767.9990234375 -10191.12109375 L -15768 -10191.1201171875 Z M -15768 -10191.123046875 L -15768.0009765625 -10191.123046875 L -15768 -10191.123046875 Z" stroke="none" fill="#79e05a"/>
        </g>
        <g id="Group_136" data-name="Group 136" transform="translate(474.436 404.672)">
          <g id="Path_28" data-name="Path 28" transform="translate(127.001) rotate(45)" fill="none">
            <path d="M0,0,158.632,19.172l19.389,160.435L19.389,160.435Z" stroke="none"/>
            <path d="M 22.91488647460938 22.9149169921875 L 37.36273193359375 142.4614868164062 L 155.1066589355469 156.6914215087891 L 140.6588439941406 37.1448974609375 L 22.91488647460938 22.9149169921875 M -1.52587890625e-05 -1.52587890625e-05 L 158.6322326660156 19.17152404785156 L 178.0216064453125 179.6063537597656 L 19.38938903808594 160.4348602294922 L -1.52587890625e-05 -1.52587890625e-05 Z" stroke="none" fill="#79e05a"/>
          </g>
          <path id="Path_29" data-name="Path 29" d="M770.006,500.791s55.423,27.617,111.085,27.955,111.563-26.6,111.563-26.6" transform="translate(-754.523 -433.498)" fill="none" stroke="#79e05a" stroke-width="20"/>
          <path id="Path_30" data-name="Path 30" d="M770.006,500.791s61.61,33.518,123.486,33.928,124.018-32.286,124.018-32.286" transform="translate(-766.952 -353.331)" fill="none" stroke="#79e05a" stroke-width="20"/>
        </g>
        <g id="Ellipse_132" data-name="Ellipse 132" transform="translate(466.354 396)" fill="none" stroke="#35adf8" stroke-width="20">
          <circle cx="135.037" cy="135.037" r="135.037" stroke="none"/>
          <circle cx="135.037" cy="135.037" r="125.037" fill="none"/>
        </g>
      </g>
      <path id="Path_116" data-name="Path 116" d="M-392.847-128.674V0h-31.3V-53.69h-48.776V0h-31.122V-128.674h31.122v49.868h48.776v-49.868Zm117.936,75.166a42.931,42.931,0,0,1-.91,8.372h-70.434q.546,11.466,5.824,16.471a18.783,18.783,0,0,0,13.468,5A18.408,18.408,0,0,0-315.5-27.118a16.148,16.148,0,0,0,6.006-8.918h32.942a43.042,43.042,0,0,1-8.736,19.2A46.561,46.561,0,0,1-302.393-3.549a54.169,54.169,0,0,1-23.114,4.823q-14.924,0-26.481-6.279A44.865,44.865,0,0,1-370.1-23.114q-6.552-11.83-6.552-27.664,0-16.016,6.461-27.755a44.279,44.279,0,0,1,18.109-18.018,55.109,55.109,0,0,1,26.572-6.279q15.106,0,26.572,6.188A43.716,43.716,0,0,1-281.19-79.261Q-274.911-68.068-274.911-53.508ZM-306.4-58.24q.182-10.01-5.369-15.015a19.763,19.763,0,0,0-13.741-5.005,20.381,20.381,0,0,0-14.2,5.1q-5.642,5.1-6.37,14.924Zm78.806-76.44V0h-31.122V-134.68Zm52.6,0V0h-31.122V-134.68Zm68.978,31.85a57.108,57.108,0,0,1,27.027,6.279A46.033,46.033,0,0,1-60.242-78.442q6.825,11.83,6.825,27.664t-6.825,27.664A46.033,46.033,0,0,1-78.988-5.005a57.108,57.108,0,0,1-27.027,6.279,57.652,57.652,0,0,1-27.118-6.279A45.889,45.889,0,0,1-151.97-23.114q-6.825-11.83-6.825-27.664t6.825-27.664a45.889,45.889,0,0,1,18.837-18.109A57.652,57.652,0,0,1-106.015-102.83Zm0,26.936a19.831,19.831,0,0,0-15.015,6.461q-6.1,6.461-6.1,18.655t6.1,18.564a19.966,19.966,0,0,0,15.015,6.37,19.677,19.677,0,0,0,14.924-6.37q6.006-6.37,6.006-18.564t-6.006-18.655A19.547,19.547,0,0,0-106.015-75.894Zm316.5-52.78L179.725,0H141.141L120.575-86.086,99.827,0H61.243L30.485-128.674H64.337L80.9-35.49l22.568-93.184H137.5L160.069-35.49l16.744-93.184Zm63.882,25.844a57.108,57.108,0,0,1,27.027,6.279,46.033,46.033,0,0,1,18.746,18.109q6.825,11.83,6.825,27.664t-6.825,27.664A46.033,46.033,0,0,1,301.392-5.005a57.108,57.108,0,0,1-27.027,6.279,57.652,57.652,0,0,1-27.118-6.279A45.889,45.889,0,0,1,228.41-23.114q-6.825-11.83-6.825-27.664t6.825-27.664a45.889,45.889,0,0,1,18.837-18.109A57.652,57.652,0,0,1,274.365-102.83Zm0,26.936a19.831,19.831,0,0,0-15.015,6.461q-6.1,6.461-6.1,18.655t6.1,18.564a19.966,19.966,0,0,0,15.015,6.37,19.677,19.677,0,0,0,14.924-6.37q6.006-6.37,6.006-18.564t-6.006-18.655A19.547,19.547,0,0,0,274.365-75.894Zm99.918-6.552A44.162,44.162,0,0,1,389.3-97.188a38.33,38.33,0,0,1,19.929-5.46v33.306h-8.918q-12.376,0-19.2,5.278t-6.825,17.836V0H343.161V-101.556h31.122Zm79.17-52.234V0H422.331V-134.68Zm60.06,31.85q11.648,0,20.02,5.278a30.649,30.649,0,0,1,12.194,14.378V-134.68h31.122V0H545.727V-18.382A30.649,30.649,0,0,1,533.533-4q-8.372,5.278-20.02,5.278a41.131,41.131,0,0,1-22.477-6.279,42.958,42.958,0,0,1-15.652-18.109q-5.733-11.83-5.733-27.664,0-16.016,5.733-27.755a43.061,43.061,0,0,1,15.652-18.018A41.131,41.131,0,0,1,513.513-102.83Zm10.01,27.3q-10.01,0-16.107,6.552t-6.1,18.2q0,11.648,6.1,18.2t16.107,6.552A21.041,21.041,0,0,0,539.63-32.76q6.279-6.734,6.279-18.018,0-11.466-6.279-18.109A21.181,21.181,0,0,0,523.523-75.53Z" transform="translate(960 686)" fill="#79e05a"/>
    </g>
    <path id="Path_117" data-name="Path 117" d="M45.672-16.1A16.519,16.519,0,0,1,43.56-7.92a15.9,15.9,0,0,1-6.424,6.16A21.816,21.816,0,0,1,26.488.616,25.567,25.567,0,0,1,15.532-1.628a19.491,19.491,0,0,1-7.656-6.16,17.429,17.429,0,0,1-3.3-8.932h8.536a12.07,12.07,0,0,0,1.8,5.148,11.982,11.982,0,0,0,4.4,4.136,13.754,13.754,0,0,0,6.908,1.628q5.28,0,8.1-2.816a9.77,9.77,0,0,0,2.816-7.216A9.3,9.3,0,0,0,35.156-22a14.028,14.028,0,0,0-4.884-3.74,66.374,66.374,0,0,0-7.92-2.948,80.1,80.1,0,0,1-9.46-3.652A16.151,16.151,0,0,1,6.82-37.488a15.014,15.014,0,0,1-2.508-9.064,15.655,15.655,0,0,1,2.332-8.536,15.287,15.287,0,0,1,6.688-5.72,24.125,24.125,0,0,1,10.252-2.024q9.152,0,14.52,4.444A17.005,17.005,0,0,1,44.352-47.08H35.728a11.664,11.664,0,0,0-3.784-6.512,11.916,11.916,0,0,0-8.36-2.816A11.436,11.436,0,0,0,15.84-53.9a8.855,8.855,0,0,0-2.9,7.084,8.77,8.77,0,0,0,1.892,5.852,13.169,13.169,0,0,0,4.708,3.52,75.785,75.785,0,0,0,7.744,2.86,78.542,78.542,0,0,1,9.636,3.7,16.279,16.279,0,0,1,6.2,5.324Q45.672-22,45.672-16.1ZM79.464-7.04V0H73.48Q66.088,0,62.436-3.52T58.784-15.312V-41.36H51.568v-6.952h7.216V-60.368h8.1v12.056h12.5v6.952H66.88v26.224q0,4.664,1.716,6.38t5.94,1.716Zm29.568-41.888a19.852,19.852,0,0,1,11.924,3.52,18.346,18.346,0,0,1,6.82,9.416v-12.32h8.008V0h-8.008V-12.32a18.346,18.346,0,0,1-6.82,9.416A19.852,19.852,0,0,1,109.032.616a21.9,21.9,0,0,1-11.44-2.992,20.694,20.694,0,0,1-7.876-8.58,28.522,28.522,0,0,1-2.86-13.156,28.8,28.8,0,0,1,2.86-13.2,20.637,20.637,0,0,1,7.876-8.624A21.9,21.9,0,0,1,109.032-48.928ZM111.32-41.8q-7.392,0-11.836,4.708T95.04-24.112q0,8.272,4.444,12.98T111.32-6.424a16.432,16.432,0,0,0,8.492-2.2,15.316,15.316,0,0,0,5.852-6.2,19.612,19.612,0,0,0,2.112-9.284,19.876,19.876,0,0,0-2.112-9.328,14.957,14.957,0,0,0-5.852-6.2A16.693,16.693,0,0,0,111.32-41.8Zm40.568-6.512L167.552-10.3l14.52-38.016h8.888L162.272,22.88h-9.064L163.24-.792l-20.328-47.52ZM243.056-7.04V0h-5.984q-7.392,0-11.044-3.52t-3.652-11.792V-41.36H215.16v-6.952h7.216V-60.368h8.1v12.056h12.5v6.952h-12.5v26.224q0,4.664,1.716,6.38t5.94,1.716Zm52.712-41.272V0H287.76V-11.352a16.25,16.25,0,0,1-6.556,9.02A19.354,19.354,0,0,1,270.248.792q-8.36,0-13.552-5.412T251.5-20.152v-28.16h8.008v27.368q0,7.216,3.7,11.132T273.24-5.9a13.716,13.716,0,0,0,10.56-4.268q3.96-4.268,3.96-12.452v-25.7Zm38.28-.792q8.448,0,13.64,5.412t5.192,15.62V0h-8.008V-27.368q0-7.216-3.7-11.088t-10.032-3.872a13.716,13.716,0,0,0-10.56,4.268q-3.96,4.268-3.96,12.452V0h-8.008V-48.312h8.008v11.44a16.458,16.458,0,0,1,6.556-9.064A19.006,19.006,0,0,1,334.048-49.1ZM409.64-26.84a23.846,23.846,0,0,1-.352,4.4H370.656q.264,8.272,4.708,12.408A15.363,15.363,0,0,0,386.232-5.9a15.707,15.707,0,0,0,9.724-2.948,12.188,12.188,0,0,0,4.8-7.876h8.536a20.293,20.293,0,0,1-3.916,8.976,20.321,20.321,0,0,1-7.876,6.16,26.083,26.083,0,0,1-10.912,2.2,24.877,24.877,0,0,1-12.32-2.992,21.143,21.143,0,0,1-8.4-8.58,27.151,27.151,0,0,1-3.036-13.156,27.409,27.409,0,0,1,3.036-13.2,21.076,21.076,0,0,1,8.4-8.624,24.877,24.877,0,0,1,12.32-2.992,24.32,24.32,0,0,1,12.276,2.992,20.6,20.6,0,0,1,8.008,8.008A22.538,22.538,0,0,1,409.64-26.84Zm-8.1.528a16.436,16.436,0,0,0-1.76-8.976,12.867,12.867,0,0,0-5.544-5.368,16.878,16.878,0,0,0-7.656-1.76A15.846,15.846,0,0,0,375.5-38.324q-4.488,4.092-4.84,12.012Zm38.368-22.616a19.852,19.852,0,0,1,11.924,3.52,18.346,18.346,0,0,1,6.82,9.416V-65.12h8.008V0h-8.008V-12.32a18.346,18.346,0,0,1-6.82,9.416A19.852,19.852,0,0,1,439.912.616a21.9,21.9,0,0,1-11.44-2.992,20.694,20.694,0,0,1-7.876-8.58,28.522,28.522,0,0,1-2.86-13.156,28.8,28.8,0,0,1,2.86-13.2,20.637,20.637,0,0,1,7.876-8.624A21.9,21.9,0,0,1,439.912-48.928ZM442.2-41.8q-7.392,0-11.836,4.708t-4.444,12.98q0,8.272,4.444,12.98T442.2-6.424a16.432,16.432,0,0,0,8.492-2.2,15.316,15.316,0,0,0,5.852-6.2,19.612,19.612,0,0,0,2.112-9.284,19.877,19.877,0,0,0-2.112-9.328,14.957,14.957,0,0,0-5.852-6.2A16.693,16.693,0,0,0,442.2-41.8Zm80.344-17.952q-6.424-.088-8.932,2.2t-2.508,7.92v1.32h11.44v7.04H511.1V0H503.1V-41.272h-6.952v-7.04H503.1v-1.936q0-17.336,19.448-16.544Zm30.624,10.824a25.631,25.631,0,0,1,12.452,2.992,21.411,21.411,0,0,1,8.624,8.624,26.78,26.78,0,0,1,3.124,13.2,26.529,26.529,0,0,1-3.124,13.156,21.483,21.483,0,0,1-8.624,8.58A25.631,25.631,0,0,1,553.168.616a25.631,25.631,0,0,1-12.452-2.992,21.773,21.773,0,0,1-8.668-8.58,26.234,26.234,0,0,1-3.168-13.156,26.481,26.481,0,0,1,3.168-13.2,21.7,21.7,0,0,1,8.668-8.624A25.631,25.631,0,0,1,553.168-48.928Zm0,7.04a16.74,16.74,0,0,0-7.964,1.936,14.555,14.555,0,0,0-5.9,5.94,20.006,20.006,0,0,0-2.244,9.9,19.81,19.81,0,0,0,2.244,9.812,14.555,14.555,0,0,0,5.9,5.94,16.74,16.74,0,0,0,7.964,1.936,16.74,16.74,0,0,0,7.964-1.936,14.555,14.555,0,0,0,5.9-5.94,19.81,19.81,0,0,0,2.244-9.812,20.006,20.006,0,0,0-2.244-9.9,14.555,14.555,0,0,0-5.9-5.94A16.74,16.74,0,0,0,553.168-41.888Zm42.68,3.344a17.769,17.769,0,0,1,6.952-7.788A20.663,20.663,0,0,1,613.712-49.1v8.712h-2.464q-6.776,0-11.088,3.476t-4.312,11.484V0H587.84V-48.312h8.008Zm74.184-10.384a21.9,21.9,0,0,1,11.44,2.992,20.637,20.637,0,0,1,7.876,8.624,28.8,28.8,0,0,1,2.86,13.2,28.522,28.522,0,0,1-2.86,13.156,20.694,20.694,0,0,1-7.876,8.58A21.9,21.9,0,0,1,670.032.616a19.678,19.678,0,0,1-11.924-3.564,18.108,18.108,0,0,1-6.732-9.372v35.2h-8.008V-48.312h8.008v12.32a18.108,18.108,0,0,1,6.732-9.372A19.678,19.678,0,0,1,670.032-48.928ZM667.744-41.8a16.761,16.761,0,0,0-8.448,2.156,14.873,14.873,0,0,0-5.9,6.2,19.876,19.876,0,0,0-2.112,9.328,19.612,19.612,0,0,0,2.112,9.284,15.227,15.227,0,0,0,5.9,6.2,16.5,16.5,0,0,0,8.448,2.2q7.48,0,11.924-4.708t4.444-12.98q0-8.272-4.444-12.98T667.744-41.8Zm42.944,3.256a17.769,17.769,0,0,1,6.952-7.788A20.663,20.663,0,0,1,728.552-49.1v8.712h-2.464q-6.776,0-11.088,3.476t-4.312,11.484V0H702.68V-48.312h8.008Zm47.7-10.384a25.631,25.631,0,0,1,12.452,2.992,21.411,21.411,0,0,1,8.624,8.624,26.78,26.78,0,0,1,3.124,13.2,26.529,26.529,0,0,1-3.124,13.156,21.483,21.483,0,0,1-8.624,8.58A25.631,25.631,0,0,1,758.384.616a25.631,25.631,0,0,1-12.452-2.992,21.773,21.773,0,0,1-8.668-8.58A26.234,26.234,0,0,1,734.1-24.112a26.481,26.481,0,0,1,3.168-13.2,21.7,21.7,0,0,1,8.668-8.624A25.631,25.631,0,0,1,758.384-48.928Zm0,7.04a16.74,16.74,0,0,0-7.964,1.936,14.555,14.555,0,0,0-5.9,5.94,20.006,20.006,0,0,0-2.244,9.9,19.81,19.81,0,0,0,2.244,9.812,14.555,14.555,0,0,0,5.9,5.94,16.74,16.74,0,0,0,7.964,1.936,16.74,16.74,0,0,0,7.964-1.936,14.555,14.555,0,0,0,5.9-5.94,19.81,19.81,0,0,0,2.244-9.812,20.006,20.006,0,0,0-2.244-9.9,14.555,14.555,0,0,0-5.9-5.94A16.74,16.74,0,0,0,758.384-41.888Zm39.248-15.664a5.815,5.815,0,0,1-4-1.364,4.535,4.535,0,0,1-1.54-3.564,4.535,4.535,0,0,1,1.54-3.564,5.815,5.815,0,0,1,4-1.364,5.524,5.524,0,0,1,3.872,1.364A4.6,4.6,0,0,1,803-62.48a4.6,4.6,0,0,1-1.5,3.564A5.524,5.524,0,0,1,797.632-57.552ZM784.168,15.84h3.344a6.45,6.45,0,0,0,4.62-1.408q1.452-1.408,1.452-4.84v-57.9h8.1V9.856q0,13.024-13.2,13.024h-4.312ZM858.88-26.84a23.846,23.846,0,0,1-.352,4.4H819.9q.264,8.272,4.708,12.408A15.363,15.363,0,0,0,835.472-5.9,15.707,15.707,0,0,0,845.2-8.844a12.188,12.188,0,0,0,4.8-7.876h8.536a20.293,20.293,0,0,1-3.916,8.976,20.32,20.32,0,0,1-7.876,6.16,26.083,26.083,0,0,1-10.912,2.2A24.877,24.877,0,0,1,823.5-2.376a21.143,21.143,0,0,1-8.4-8.58,27.151,27.151,0,0,1-3.036-13.156,27.409,27.409,0,0,1,3.036-13.2,21.076,21.076,0,0,1,8.4-8.624,24.877,24.877,0,0,1,12.32-2.992A24.32,24.32,0,0,1,848.1-45.936a20.6,20.6,0,0,1,8.008,8.008A22.538,22.538,0,0,1,858.88-26.84Zm-8.1.528a16.437,16.437,0,0,0-1.76-8.976,12.866,12.866,0,0,0-5.544-5.368,16.878,16.878,0,0,0-7.656-1.76,15.846,15.846,0,0,0-11.088,4.092q-4.488,4.092-4.84,12.012Zm39.952-22.616q9.24,0,15.312,4.928a20.875,20.875,0,0,1,7.48,13.2H905.08a12.351,12.351,0,0,0-4.8-8.14,15.707,15.707,0,0,0-9.724-2.948,15.555,15.555,0,0,0-7.7,1.936,14.081,14.081,0,0,0-5.588,5.94,21.034,21.034,0,0,0-2.112,9.9,21.034,21.034,0,0,0,2.112,9.9,14.081,14.081,0,0,0,5.588,5.94,15.555,15.555,0,0,0,7.7,1.936,15.547,15.547,0,0,0,9.724-2.992,12.519,12.519,0,0,0,4.8-8.184h8.448a20.757,20.757,0,0,1-7.48,13.244Q899.976.616,890.736.616a24.877,24.877,0,0,1-12.32-2.992,21.143,21.143,0,0,1-8.4-8.58,27.151,27.151,0,0,1-3.036-13.156,27.409,27.409,0,0,1,3.036-13.2,21.076,21.076,0,0,1,8.4-8.624A24.877,24.877,0,0,1,890.736-48.928ZM947.056-7.04V0h-5.984q-7.392,0-11.044-3.52t-3.652-11.792V-41.36H919.16v-6.952h7.216V-60.368h8.1v12.056h12.5v6.952h-12.5v26.224q0,4.664,1.716,6.38t5.94,1.716Zm24.9-41.888q8.184,0,13.156,4.268a17.977,17.977,0,0,1,6.028,11.484h-7.656a11.086,11.086,0,0,0-3.564-7.084,11.607,11.607,0,0,0-8.14-2.772,10.042,10.042,0,0,0-6.732,2.068,6.971,6.971,0,0,0-2.42,5.588,5.771,5.771,0,0,0,1.628,4.268,10.446,10.446,0,0,0,4.048,2.464,67.532,67.532,0,0,0,6.644,1.8,65.268,65.268,0,0,1,8.668,2.508,13.578,13.578,0,0,1,5.632,4.092,11.5,11.5,0,0,1,2.332,7.568A11.891,11.891,0,0,1,987.14-3.08Q982.7.616,975.3.616q-8.624,0-14.08-4.136A16.5,16.5,0,0,1,954.8-15.048h7.744a10.084,10.084,0,0,0,3.828,7.128A13.812,13.812,0,0,0,975.3-5.192,9.285,9.285,0,0,0,981.772-7.3a7.125,7.125,0,0,0,2.332-5.544,6.065,6.065,0,0,0-1.672-4.488,10.965,10.965,0,0,0-4.136-2.552,60.488,60.488,0,0,0-6.776-1.848,66.128,66.128,0,0,1-8.58-2.464,13.149,13.149,0,0,1-5.456-3.916,10.964,10.964,0,0,1-2.244-7.26,12.153,12.153,0,0,1,4.488-9.812Q964.216-48.928,971.96-48.928Zm80.784,1.5v9.416h-9.68v-9.416Zm0,38.016V0h-9.68V-9.416Zm62.128-21.648a33.987,33.987,0,0,1-3.784,16.412,25.937,25.937,0,0,1-11.132,10.824Q1092.608,0,1082.312,0H1062.6V-62.04h19.712q10.3,0,17.644,3.74a25.423,25.423,0,0,1,11.132,10.736A34.181,34.181,0,0,1,1114.872-31.064ZM1081.7-7.216q12.144,0,18.568-6.248t6.424-17.6q0-11.352-6.38-17.644T1081.7-55h-11.088V-7.216Z" transform="translate(437 966)" fill="#fff"/>
  </g>
</svg>
