<svg xmlns="http://www.w3.org/2000/svg" width="457.5" height="376.264" viewBox="0 0 457.5 376.264">
  <g id="Group_159" data-name="Group 159" transform="translate(-8105.483 -1397.156)">
    <rect id="Rectangle_281" data-name="Rectangle 281" width="60.102" height="60.102" transform="translate(8226.953 1397.156)" fill="#ff3b30"/>
    <rect id="Rectangle_282" data-name="Rectangle 282" width="60.102" height="60.102" transform="translate(8301.6 1397.156)" fill="#fc0"/>
    <rect id="Rectangle_283" data-name="Rectangle 283" width="60.102" height="60.102" transform="translate(8376.208 1397.156)" fill="#5ac8fa"/>
    <rect id="Rectangle_284" data-name="Rectangle 284" width="60.102" height="60.102" transform="translate(8226.953 1470.345)" fill="#ff9500"/>
    <rect id="Rectangle_285" data-name="Rectangle 285" width="60.102" height="60.102" transform="translate(8301.6 1470.345)" fill="#4cd964"/>
    <rect id="Rectangle_286" data-name="Rectangle 286" width="60.102" height="60.102" transform="translate(8376.208 1470.345)" fill="#92f44b"/>
    <rect id="Rectangle_287" data-name="Rectangle 287" width="60.102" height="60.102" transform="translate(8228.037 1543.534)" fill="#007aff"/>
    <rect id="Rectangle_288" data-name="Rectangle 288" width="60.102" height="60.102" transform="translate(8302.645 1543.534)" fill="#5856d6"/>
    <rect id="Rectangle_289" data-name="Rectangle 289" width="60.102" height="60.102" transform="translate(8377.291 1543.534)" fill="#ff2d55"/>
    <path id="Path_123" data-name="Path 123" d="M28.044-48.564V0H12.483V-120.555h38.3q20.691,0,30.951,9.661T92-84.474q0,16.929-10.6,26.419t-30.609,9.49Zm21.375-13q14.193,0,20.434-5.985T76.1-84.474q0-11.286-6.242-17.186t-20.434-5.9H28.044v46Z" transform="translate(8093 1770)" fill="#ff3b30"/>
    <path id="Path_122" data-name="Path 122" d="M9.747-121.41a8.933,8.933,0,0,1,2.907-6.926,10.979,10.979,0,0,1,7.7-2.65,10.979,10.979,0,0,1,7.695,2.65,8.933,8.933,0,0,1,2.907,6.926,8.933,8.933,0,0,1-2.907,6.925,10.979,10.979,0,0,1-7.695,2.65,10.979,10.979,0,0,1-7.7-2.65A8.933,8.933,0,0,1,9.747-121.41Zm18.3,27.531V0H12.483V-93.879Z" transform="translate(8191 1770)" fill="#ff9500"/>
    <path id="Path_121" data-name="Path 121" d="M66.519,0,42.066-35.91,20.007,0H2.736l30.78-48.393L2.565-93.879H20.349L44.118-58.995,65.835-93.879H83.106L52.5-46.683,84.3,0Z" transform="translate(8232 1770)" fill="#fc0"/>
    <path id="Path_120" data-name="Path 120" d="M98.838-52.155a46.339,46.339,0,0,1-.684,8.55H23.085q.513,16.074,9.149,24.111a29.852,29.852,0,0,0,21.118,8.037q11.286,0,18.9-5.729a23.684,23.684,0,0,0,9.319-15.3H98.154a39.432,39.432,0,0,1-7.609,17.442,39.486,39.486,0,0,1-15.3,11.97A50.685,50.685,0,0,1,54.036,1.2,48.341,48.341,0,0,1,30.1-4.617,41.085,41.085,0,0,1,13.766-21.289q-5.9-10.859-5.9-25.564t5.9-25.65A40.956,40.956,0,0,1,30.1-89.262a48.341,48.341,0,0,1,23.94-5.814q13.68,0,23.854,5.814A40.03,40.03,0,0,1,93.452-73.7,43.8,43.8,0,0,1,98.838-52.155ZM83.106-51.129q.513-10.431-3.42-17.442A25,25,0,0,0,68.913-79a32.8,32.8,0,0,0-14.877-3.42q-12.825,0-21.546,7.951t-9.4,23.341Z" transform="translate(8318 1770)" fill="#4cd964"/>
    <path id="Path_119" data-name="Path 119" d="M28.044-126.54V0H12.483V-126.54Z" transform="translate(8425 1770)" fill="#5ac8fa"/>
    <path id="Path_118" data-name="Path 118" d="M12.141-92.169a29.152,29.152,0,0,1,4.788-16.245q4.788-7.353,14.193-11.628t22.4-4.275q13,0,22.316,4.275a32.39,32.39,0,0,1,14.108,11.628,29.152,29.152,0,0,1,4.788,16.245,28.4,28.4,0,0,1-5.472,17.442Q83.79-67.374,72.675-64.3q11.97,3.249,18.639,11.286t6.669,19.836q0,17.1-12.141,26.847T53.523,3.42Q33.345,3.42,21.2-6.327T9.063-33.174q0-11.8,6.583-19.836T34.2-64.3Q23.085-67.374,17.613-74.727A28.4,28.4,0,0,1,12.141-92.169Zm15.39,2.223q0,10.26,7.011,15.818t18.981,5.558q11.97,0,18.9-5.558t6.925-15.818q0-10.26-7.011-15.817t-18.81-5.558q-11.8,0-18.9,5.558T27.531-89.946ZM24.282-34.029q0,11.628,7.866,18.04T53.523-9.576q13.338,0,21.2-6.5t7.866-17.955q0-11.628-8.208-17.613T53.523-57.627q-12.825,0-21.033,5.985T24.282-34.029Z" transform="translate(8465 1770)" fill="#007aff"/>
  </g>
</svg>
