<svg xmlns="http://www.w3.org/2000/svg" width="812.882" height="206.48" viewBox="0 0 812.882 206.48">
  <g id="Group_160" data-name="Group 160" transform="translate(-8907.953 -1510.156)">
    <rect id="Rectangle_281" data-name="Rectangle 281" width="60.102" height="60.102" transform="translate(8907.953 1510.156)" fill="#ff3b30"/>
    <rect id="Rectangle_282" data-name="Rectangle 282" width="60.102" height="60.102" transform="translate(8982.6 1510.156)" fill="#fc0"/>
    <rect id="Rectangle_283" data-name="Rectangle 283" width="60.102" height="60.102" transform="translate(9057.208 1510.156)" fill="#5ac8fa"/>
    <rect id="Rectangle_284" data-name="Rectangle 284" width="60.102" height="60.102" transform="translate(8907.953 1583.345)" fill="#ff9500"/>
    <rect id="Rectangle_285" data-name="Rectangle 285" width="60.102" height="60.102" transform="translate(8982.6 1583.345)" fill="#4cd964"/>
    <rect id="Rectangle_286" data-name="Rectangle 286" width="60.102" height="60.102" transform="translate(9057.208 1583.345)" fill="#92f44b"/>
    <rect id="Rectangle_287" data-name="Rectangle 287" width="60.102" height="60.102" transform="translate(8909.037 1656.534)" fill="#007aff"/>
    <rect id="Rectangle_288" data-name="Rectangle 288" width="60.102" height="60.102" transform="translate(8983.645 1656.534)" fill="#5856d6"/>
    <rect id="Rectangle_289" data-name="Rectangle 289" width="60.102" height="60.102" transform="translate(9058.291 1656.534)" fill="#ff2d55"/>
    <path id="Path_123" data-name="Path 123" d="M31.542-32.38V27.1H12.483V-120.555H59.4q25.343,0,37.909,11.834t12.567,32.359q0,20.735-12.985,32.359T59.4-32.38ZM57.723-48.3q17.384,0,25.028-7.33T90.4-76.363q0-13.823-7.645-21.049t-25.028-7.226H31.542V-48.3Z" transform="translate(9148 1664.345)" fill="#ff3b30"/>
    <path id="Path_122" data-name="Path 122" d="M9.747-119.257a10.941,10.941,0,0,1,3.561-8.482,13.447,13.447,0,0,1,9.425-3.246,13.447,13.447,0,0,1,9.425,3.246,10.941,10.941,0,0,1,3.561,8.482,10.941,10.941,0,0,1-3.561,8.482,13.447,13.447,0,0,1-9.425,3.246,13.447,13.447,0,0,1-9.425-3.246A10.941,10.941,0,0,1,9.747-119.257Zm22.41,33.72V29.447H13.1V-85.537Z" transform="translate(9267.416 1662)" fill="#ff9500"/>
    <path id="Path_121" data-name="Path 121" d="M80.9,21.105,50.946-22.878,23.928,21.105H2.774l37.7-59.272L2.565-93.879H24.347L53.46-51.153l26.6-42.726h21.154L63.722-36.073l38.956,57.178Z" transform="translate(9316.02 1670.342)" fill="#fc0"/>
    <path id="Path_120" data-name="Path 120" d="M119.29-42.506a56.756,56.756,0,0,1-.838,10.472H26.506Q27.135-12.346,37.712-2.5T63.578,7.342Q77.4,7.342,86.721.325A29.008,29.008,0,0,0,98.136-18.42h20.316a48.3,48.3,0,0,1-9.32,21.363A48.363,48.363,0,0,1,90.386,17.6,62.08,62.08,0,0,1,64.416,22.84q-16.546,0-29.322-7.121a50.322,50.322,0,0,1-20-20.421Q7.866-18,7.866-36.013T15.092-67.43a50.163,50.163,0,0,1,20-20.525q12.776-7.121,29.322-7.121,16.755,0,29.217,7.121A49.03,49.03,0,0,1,112.692-68.9,53.642,53.642,0,0,1,119.29-42.506Zm-19.269,1.257q.628-12.776-4.189-21.363A30.623,30.623,0,0,0,82.637-75.388a40.171,40.171,0,0,0-18.222-4.189q-15.708,0-26.39,9.739T26.506-41.249Z" transform="translate(9422.545 1670.073)" fill="#4cd964"/>
    <path id="Path_119" data-name="Path 119" d="M31.542-126.54V28.448H12.483V-126.54Z" transform="translate(9554.638 1663)" fill="#5ac8fa"/>
    <path id="Path_118" data-name="Path 118" d="M12.833-84.942a35.706,35.706,0,0,1,5.864-19.9q5.864-9.006,17.384-14.242t27.437-5.236q15.918,0,27.332,5.236t17.279,14.242a35.706,35.706,0,0,1,5.864,19.9,34.783,34.783,0,0,1-6.7,21.363q-6.7,9.006-20.316,12.776,14.661,3.979,22.829,13.823t8.168,24.3q0,20.944-14.87,32.883T63.518,32.137Q38.8,32.137,23.933,20.2T9.063-12.684q0-14.452,8.064-24.3T39.851-50.8q-13.614-3.77-20.316-12.776A34.783,34.783,0,0,1,12.833-84.942Zm18.85,2.723q0,12.567,8.587,19.373t23.248,6.807q14.661,0,23.143-6.807t8.482-19.373q0-12.567-8.587-19.373T63.518-108.4q-14.452,0-23.143,6.807T31.683-82.219ZM27.7-13.731q0,14.242,9.634,22.1t26.18,7.854q16.337,0,25.971-7.959t9.634-21.991q0-14.242-10.053-21.573T63.518-42.634q-15.708,0-25.761,7.331T27.7-13.731Z" transform="translate(9602.861 1663.499)" fill="#007aff"/>
  </g>
</svg>
